<svg width="22" height="22" viewBox="0 0 22 22" fill="none" xmlns="http://www.w3.org/2000/svg">
<path d="M10.8694 0.875862C12.1694 0.834116 13.4646 1.05412 14.6779 1.5228C15.8912 1.99148 16.998 2.69928 17.9323 3.60413C18.8667 4.50899 19.6097 5.59243 20.1171 6.79008C20.6244 7.98774 20.8859 9.27517 20.8859 10.5759C20.8859 11.8766 20.6244 13.164 20.1171 14.3616C19.6097 15.5593 18.8667 16.6427 17.9323 17.5476C16.998 18.4524 15.8912 19.1602 14.6779 19.6289C13.4646 20.0976 12.1694 20.3176 10.8694 20.2759C9.89154 20.2786 8.91776 20.1494 7.97441 19.8919C7.79743 19.8435 7.6092 19.8577 7.44141 19.9319L5.45741 20.8079C5.33745 20.8606 5.20637 20.8831 5.07568 20.8734C4.945 20.8637 4.81869 20.8221 4.70783 20.7522C4.59697 20.6823 4.50496 20.5863 4.43985 20.4725C4.37475 20.3588 4.33854 20.2308 4.33441 20.0999L4.28041 18.3199C4.2759 18.2118 4.24968 18.1057 4.20329 18.0079C4.1569 17.9101 4.0913 17.8227 4.01041 17.7509C3.00659 16.8472 2.20721 15.7397 1.66571 14.5024C1.12422 13.2651 0.853075 11.9264 0.870411 10.5759C0.86281 9.27441 1.11855 7.98486 1.62224 6.78481C2.12593 5.58475 2.86717 4.49898 3.80136 3.59282C4.73555 2.68665 5.84338 1.97882 7.05822 1.51191C8.27306 1.04499 9.56879 0.828636 10.8694 0.875862Z" fill="white" stroke="black" stroke-width="1.739" stroke-miterlimit="10"/>
<path fill-rule="evenodd" clip-rule="evenodd" d="M16.6563 9.00685C16.7398 8.87572 16.7743 8.71928 16.7537 8.56518C16.733 8.41108 16.6585 8.26925 16.5434 8.16476C16.4282 8.06028 16.2799 7.99987 16.1245 7.99421C15.9691 7.98855 15.8167 8.03802 15.6943 8.13385L13.1383 10.1839C13.0293 10.2664 12.8964 10.3112 12.7596 10.3116C12.6229 10.312 12.4898 10.2678 12.3803 10.1859L9.92631 8.34485C9.75221 8.21451 9.55301 8.12161 9.34126 8.072C9.12951 8.02239 8.90978 8.01715 8.6959 8.0566C8.48202 8.09605 8.27863 8.17934 8.09851 8.30123C7.91839 8.42312 7.76545 8.58097 7.64931 8.76485L5.08231 12.7449C4.99802 12.8759 4.96289 13.0325 4.98313 13.187C5.00337 13.3415 5.07768 13.4838 5.19287 13.5886C5.30806 13.6935 5.45669 13.7542 5.61238 13.7599C5.76806 13.7656 5.92074 13.716 6.04331 13.6199L8.59931 11.5709C8.70841 11.4881 8.84152 11.4431 8.97847 11.4427C9.11543 11.4424 9.24877 11.4866 9.35831 11.5689L11.8103 13.4089C11.9844 13.5394 12.1837 13.6324 12.3956 13.6821C12.6074 13.7318 12.8273 13.7371 13.0413 13.6976C13.2553 13.6582 13.4588 13.5748 13.639 13.4528C13.8192 13.3309 13.9722 13.1729 14.0883 12.9889L16.6563 9.00685Z" fill="black"/>
</svg>
